<svg id="Layer_1" data-name="Layer 1" xmlns="http://www.w3.org/2000/svg" viewBox="0 0 947.55 334.49"><path d="M253,230.5,286.5,264H92V380l35.6,1,35.7-.1L146.5,364l-16.8-17-9.86-.1c-5.37-.1-10.63-.58-11.71-1.17-4.58-2.44-4.78-10.44-.29-13.36,2-1.27,4.78-1.57,15.71-1.37l13.81.2L170,363.7c17.95,17.95,32.41,32.8,32.21,33s-25.13.4-55.34.3L92,396.8V514H246.5L230,497.5,213.5,481H162.7c-53.6,0-55.4-.1-57.1-4.5a9.48,9.48,0,0,1,1.9-10l2.4-2.5H220.5l32.8,32.8c18,18,32.7,33,32.7,33.5s-47.5.7-105.5.7H75V247H246.5L230,230.5,213.5,214H42V331h8c6.9,0,8.2.3,10,2.2,3.1,3.3,3,8-.3,11.5-1.8,2-3,2.3-9.9,2.3H42V464h7.3c8,0,11.1,1.4,12.8,5.6,1.3,3.5-1.2,9.1-4.6,10.4-1.5.6-9.4,1-17.6,1H25V197H219.5Z" transform="translate(-25 -196.51)"/><rect x="312" y="0.49" width="17" height="283"/><path d="M365.5,463h-20a8.5,8.5,0,0,0,0,17h20C376.76,479.59,376.76,463.42,365.5,463Z" transform="translate(-25 -196.51)"/><rect x="312" y="0.49" width="194" height="17"/><rect x="548.26" y="188.75" width="17" height="94.02" transform="translate(-28.64 266.23) rotate(-45)"/><rect x="554" y="66.49" width="17" height="267"/><rect x="362" y="317.49" width="209" height="17"/><rect x="376" y="76.49" width="17" height="142"/><rect x="376" y="76.49" width="97" height="17"/><rect x="490" y="105.49" width="17" height="134"/><rect x="401" y="222.49" width="105" height="17"/><rect x="501.16" y="271.46" width="17.13" height="44.59" transform="translate(-69.03 295.89) rotate(-49.69)"/><path d="M420.5,398h-2a8.5,8.5,0,0,0,0,17h2C431.76,414.58,431.76,398.42,420.5,398Z" transform="translate(-25 -196.51)"/><rect x="687" y="0.49" width="194" height="17"/><rect x="637.81" y="227.77" width="94.02" height="17" transform="translate(8.51 356.93) rotate(-45)"/><rect x="924.8" y="189.27" width="17" height="94.02" transform="translate(81.29 532.64) rotate(-45)"/><rect x="687" y="316.49" width="194" height="17"/><rect x="676.32" y="443.72" width="17" height="94.02" transform="translate(-171.42 431.46) rotate(-45)"/><rect x="886.29" y="482.23" width="94.02" height="17" transform="translate(-98.64 607.16) rotate(-45)"/><rect x="621" y="66.49" width="17" height="201"/><rect x="930" y="66.49" width="17" height="201"/><rect x="739" y="79.49" width="97" height="17"/><polygon points="714.88 130.62 701.74 117.44 739.13 79.62 752.26 92.79 714.88 130.62"/><polygon points="861.14 129.63 873.24 117.48 836 79.78 823.9 91.92 861.14 129.63"/><rect x="739" y="238.49" width="97" height="17"/><rect x="702" y="117.49" width="17" height="101"/><rect x="856" y="116.49" width="17" height="101"/><polygon points="738.83 255.45 750.93 243.3 713.69 205.59 701.59 217.74 738.83 255.45"/><polygon points="836.14 255.02 823 241.85 860.39 204.02 873.52 217.2 836.14 255.02"/></svg>