<svg id="Layer_1" data-name="Layer 1" xmlns="http://www.w3.org/2000/svg" viewBox="0 0 226.44 51.44"><defs><style>.cls-1{fill:#1a1a1a;}.cls-2{fill:#292929;}.cls-3{fill:#262626;}.cls-4{fill:#282828;}.cls-5{fill:#212121;}.cls-6{fill:#1b1b1b;}.cls-7{fill:#1f1f1f;}.cls-8{fill:#1e1e1e;}.cls-9{fill:#222;}.cls-10{fill:#242424;}.cls-11{fill:#232323;}.cls-12{fill:#171717;}.cls-13{fill:#141414;}.cls-14{fill:#1d1d1d;}.cls-15{fill:#272727;}.cls-16{fill:#202020;}.cls-17{fill:#2b2b2b;}.cls-18{fill:#1c1c1c;}.cls-19{fill:#fdfdfd;}.cls-20{fill:#252525;}.cls-21{fill:#fefefe;}</style></defs><path class="cls-1" d="M481,627c-9.16.1-18.33.36-27.49-.13a3.28,3.28,0,0,1-.24-1.93V578.14a1.54,1.54,0,0,1,2.24-2c1.1.78,1.39,2.06,1.82,3.2a119.35,119.35,0,0,0,7.42,15.1c-.14,1.33.72,1.36,1.7,1.37a41.59,41.59,0,0,1,5.58.11,64.78,64.78,0,0,1,5.44,9.14c.78,1.48.28,2.29-1.56,2.24-3.15-.09-6.3,0-9.45,0-1.27,0-1.87.34-1.72,1.68.24,2.18-.42,4.41.37,6.57l9.39,0a93.65,93.65,0,0,1,6.55,9.62A1.36,1.36,0,0,1,481,627Z" transform="translate(-398.55 -575.71)"/><path class="cls-2" d="M589,585c0-2.82-1.1-6.37.21-8.27s5.2-.35,7.91-.75c2.5-.36,3.79.57,4.83,2.93,3.35,7.57,7,15,10.53,22.51,1.29,0,.7-1,.71-1.53.07-3.85,0-7.71,0-11.56.48-1.08,1.25-.61,1.8-.2,3,2.24,6,4.56,9.11,6.74a1.49,1.49,0,0,1,.55,1.32q0,7.74,0,15.47c0,1.07-.59,1.26-1.45,1.11a3.18,3.18,0,0,1-1.33-.65c-4.18-3-8.35-6-12.53-8.93C601.89,597.89,595.84,591,589,585Z" transform="translate(-398.55 -575.71)"/><path class="cls-3" d="M552,576.1c5.74,0,11.48-.17,17.22-.05s9.26,4,9.26,9.61q0,15.72-.07,31.45A5.3,5.3,0,0,1,578,620a3,3,0,0,1-.7-2.36q0-4.6,0-9.23a4.1,4.1,0,0,0-1.3-3.36c-3.28-2.91-5.74-6.67-9.37-9.24-.58-1.44-.35-3-.38-4.44-.06-3-.1-3.1-3-3.16A11.59,11.59,0,0,1,560,588c-1.33-.55-1.84-1.86-2.58-2.92-1.51-2.16-3.08-4.28-4.74-6.34C552.09,578,551.3,577.21,552,576.1Z" transform="translate(-398.55 -575.71)"/><path class="cls-4" d="M589,585c1.28-.19,1.94.74,2.71,1.49,4.68,4.57,9.1,9.43,14.37,13.39,5.56,4.18,11.11,8.38,16.9,12.27a4.17,4.17,0,0,0,1.42.33c.7,3,.1,6.14.31,9.2-.19,1.63-1.13.82-1.69.41-1.74-1.28-3.72-2.18-5.48-3.39A151.59,151.59,0,0,1,605,609.5c-1.38-2.69-2.75-5.38-4.36-8.54-.08,1.68-.14,2.86-.2,4a1.27,1.27,0,0,1-2-.22c-2.75-3.21-6.54-5.22-9.42-8.27Z" transform="translate(-398.55 -575.71)"/><path class="cls-5" d="M501,576.1h14.5c2,1.16,2.59,3.45,3.57,5.26,1.4,2.56,3.06,4.92,4.68,7.32,2.32,3.44,4.35,7.06,7,10.31a4,4,0,0,1,1,2.72c-.08,3.73.09,7.47-.09,11.21-1.21,1-2,.23-2.62-.75-2.61-4.16-6.09-7.65-9-11.59-.5-2.67-.13-5.37-.24-8.06,0-1,.15-2-.53-2.82-1-1.3-2.5-1.43-4-1.49-2.46-.08-4.93.24-7.38-.23-2.66-2-3.8-5-5.21-7.74C502,579,500.36,577.94,501,576.1Z" transform="translate(-398.55 -575.71)"/><path class="cls-6" d="M464.45,594c-2.72-1.24-2.84-4.29-4.14-6.42-2.13-3.51-3.25-7.63-4.79-11.49h26a12.5,12.5,0,0,1,3.74,10.57c-.12,1.31-1,1.07-1.8,1.07-5.16,0-10.31,0-15.46,0-3.76,0-3.16-.46-3.26,3.36C464.72,592.08,465.07,593.1,464.45,594Z" transform="translate(-398.55 -575.71)"/><path class="cls-7" d="M501,576.1l6.6,11.62a2,2,0,0,1,.57,1.35c.07,5.79.41,11.59-.19,17.36-1.05,1.64-1.75.46-2.41-.35a86.62,86.62,0,0,1-7.92-12,2.37,2.37,0,0,0-1-1.12c0,4.63,0,9.13,0,13.63.16,5.64.06,11.27.06,16.91,0,1.13.16,2.34-.77,3.28-.53-.85-.24-1.78-.25-2.67q0-22.42,0-44.86c0-3.29,0-3.29,3.25-3.27C499.68,576,500.34,576.07,501,576.1Z" transform="translate(-398.55 -575.71)"/><path class="cls-8" d="M496.13,606.06V591.15a8.81,8.81,0,0,1,2.45,3.25c2.68,4.38,5.12,8.94,8.84,12.59,1.23,1.22.74,2.77.78,4.19.09,3.29.05,3.29,3.31,3.81a3.65,3.65,0,0,1,1.84,1.6c1.94,2.69,3.9,5.36,6,8,.51.66,1.38,1.33.69,2.39h-9c-4.43-4.7-7.63-10.33-11.53-15.44C498.18,609.81,496.76,608.17,496.13,606.06Z" transform="translate(-398.55 -575.71)"/><path class="cls-9" d="M564.49,627c-4.49,0-9,.19-13.45,0a8.54,8.54,0,0,1-8.59-8.8c-.07-4.73,0-9.46.07-14.2,1.43-.71,2.18.42,2.9,1.21,3,3.32,5.92,6.69,8.93,10,3.26,3.09,6,6.68,9.59,9.44C564.69,625.2,565.27,626,564.49,627Z" transform="translate(-398.55 -575.71)"/><path class="cls-10" d="M552,576.1c.37,2.21,2.35,3.33,3.43,5.06,1.34,2.15,3.2,4,4.07,6.43a2.6,2.6,0,0,1-2.07.62c-2.29-.17-2.72,1.08-2.71,3,0,3.2.29,6.42-.2,9.61-1.1,1.86-2.17.62-2.89-.23-1.74-2.07-3.83-3.87-5.24-6.21-1.14-1.91-2.82-3.43-3.86-5.41,0-1.16-.12-2.33-.1-3.49C542.5,579.69,546.11,576.14,552,576.1Z" transform="translate(-398.55 -575.71)"/><path class="cls-11" d="M564.49,627a2,2,0,0,0-.87-1.92c-3.73-2.65-6.52-6.28-9.65-9.54l.3-.3c2.73-.88,5.55-.33,8.33-.42,3.49-.11,3.49,0,3.66-3.54a6.15,6.15,0,0,1,.25-1.71c1.34-1.82,2.41-.37,3.19.47a87.11,87.11,0,0,0,8.23,7.5c0,.85,0,1.69.07,2.53-1,4.13-3.68,6.57-7.85,6.93C568.27,627.11,566.37,627,564.49,627Z" transform="translate(-398.55 -575.71)"/><path class="cls-9" d="M531.44,613c0-2.66-.1-5.33.09-8a9.39,9.39,0,0,0-2.26-7c-3.48-4.29-6.28-9.09-9.36-13.67a37.23,37.23,0,0,1-4.4-8.22c3-.08,6-.4,8.94.17a8.69,8.69,0,0,1,7.38,8.79c.18,11,0,22.08,0,33.12a3.09,3.09,0,0,1-.31.93A5.86,5.86,0,0,1,531.44,613Z" transform="translate(-398.55 -575.71)"/><path class="cls-3" d="M600.39,615.48c0,3.32,0,6.65.1,10,0,1.07-.1,1.69-1.43,1.64-2.91-.09-5.83-.06-8.74,0-1.05,0-1.46-.26-1.45-1.39.09-6.23.1-12.46.14-18.7.7-.57,1.29-.14,1.76.3a67.77,67.77,0,0,0,8.74,7A2.55,2.55,0,0,1,600.39,615.48Z" transform="translate(-398.55 -575.71)"/><path class="cls-12" d="M435.11,601.69,434,600.25c-2.79-3.41-5.5-6.89-8.39-10.21-1.75-2,.51-2.17,1.19-3,.89-1.17,1.56-.88,2.44.23,3.44,4.37,7,8.7,10.56,12.94,1.1,1.29,1,2-.06,3.25-3.58,4.27-7.13,8.56-10.48,13-1.31,1.74-2,.6-2.89-.13s-2.21-1.12-.76-2.76c2.93-3.29,5.59-6.81,8.35-10.24C434.34,602.79,434.7,602.25,435.11,601.69Z" transform="translate(-398.55 -575.71)"/><path class="cls-13" d="M414.4,614.72c-3.13,3.31-3.14,3.31-5.9-.07-3.05-3.73-6.06-7.5-9.15-11.19-.91-1.09-1.18-1.8-.1-3.08,3.67-4.3,7.24-8.69,10.65-13.18,1.13-1.48,1.79-.92,2.67,0s2.55,1.09,1,2.9c-3,3.38-5.62,7-8.53,10.41-1,1.16-.83,1.82.08,2.88C408.25,607.09,411.31,610.93,414.4,614.72Z" transform="translate(-398.55 -575.71)"/><path class="cls-14" d="M496.13,606.06c1.76,2.37,3.46,4.78,5.3,7.08,3.09,3.89,5.3,8.43,8.83,12A5,5,0,0,1,511,627a127.06,127.06,0,0,1-15-.13Z" transform="translate(-398.55 -575.71)"/><path class="cls-11" d="M542.52,589c1.77,1.18,2.84,3,4.07,4.61,2.14,2.89,4.16,5.92,7.32,7.88.12.11.33.21.35.33.73,4.54,1.09,9.07-.19,13.57l-.1.09c-2.91-3.19-5.84-6.36-8.71-9.58a5,5,0,0,0-2.74-1.92Z" transform="translate(-398.55 -575.71)"/><path class="cls-15" d="M605,609.5c3.1,1.07,5.45,3.35,7.95,5.29,3.67,2.84,8,4.59,11.51,7.7a7.79,7.79,0,0,1,.06,4.41c-3.38.06-6.77.1-10.15.17a1.38,1.38,0,0,1-1.54-.88C610.26,620.59,607.19,615.24,605,609.5Z" transform="translate(-398.55 -575.71)"/><path class="cls-16" d="M531.44,613c0,2,.07,4.08.11,6.12a7,7,0,0,1-3,5.6c-1.53-.69-2.22-2.19-3.18-3.4-1.9-2.38-3.69-4.85-5.71-7.15a2.58,2.58,0,0,1,0-.83c.14-3.13,0-6.26.08-9.38,0-1-.24-2.18.81-3,.9-.12,1.33.4,1.7,1.13,2,3.84,5.86,6.28,7.54,10.35C530.11,613.06,530.86,613,531.44,613Z" transform="translate(-398.55 -575.71)"/><path class="cls-15" d="M600.39,615.48a50.88,50.88,0,0,1-9.19-7c-.64-.61-1.14-1.46-2.19-1.48V596.5c.61.24,1.45.29,1.8.74,2.21,2.81,6,3.86,7.84,7a1.7,1.7,0,0,0,1.74.71Z" transform="translate(-398.55 -575.71)"/><path class="cls-8" d="M519.83,614.42a6.19,6.19,0,0,1,2.94,2.45c1.84,2.68,3.87,5.23,5.82,7.84-2.4,2.53-5.47,2.48-8.59,2.24-1.73-3.47-4.72-6.05-6.67-9.37-.41-.71-.88-1.38-1.33-2.07,1.08-1,2.45-.72,3.71-.7S518.44,614.36,519.83,614.42Z" transform="translate(-398.55 -575.71)"/><path class="cls-17" d="M624.41,595.51c-3.38-1.71-6.17-4.26-9.17-6.51-.52-.39-.9-1-1.64-1-.7-2.58-.4-5.18-.16-7.78a4.5,4.5,0,0,1-.05-2.74c1.11-.38,1.66.52,2.33,1.07,2.51,2.06,4.9,4.26,7.58,6.11.71.48,1.42,1,1.39,1.94C624.57,589.58,625.07,592.56,624.41,595.51Z" transform="translate(-398.55 -575.71)"/><path class="cls-17" d="M624.41,595.51c.35-9.15.38-9.2-7-14.7-1.41-1-2.4-2.52-4-3.31-.37-1.08,0-1.52,1.15-1.5,3,0,6,.08,9,0,1.93,0,1.33,1.31,1.34,2.23q0,23.34,0,46.66c0,.67.45,1.5-.4,2l-.06-4.41v-27Z" transform="translate(-398.55 -575.71)"/><path class="cls-6" d="M481,627c-.6-2.35-2.1-4.21-3.45-6.13a19,19,0,0,1-3.05-5.31c3.06,0,6.11,0,9.16-.13,1.4-.06,1.64.54,1.6,1.74a68.19,68.19,0,0,0,0,7.43c.17,2.09-.51,2.88-2.57,2.52C482.17,627,481.59,627,481,627Z" transform="translate(-398.55 -575.71)"/><path class="cls-18" d="M465.12,615.46c-1.26-2.51-.49-5.16-.45-7.74,0-1,1.16-.71,1.85-.72,2.91,0,5.83-.12,8.73,0,2.3.11,2.34-.64,1.36-2.37-1.58-2.81-3.64-5.37-4.61-8.51a17.42,17.42,0,0,1,7.33-.13c.06,3.4.09,6.8.2,10.2,0,1.31-.77,1.21-1.63,1.21-3.58,0-7.17.13-10.74-.06-2-.1-2.42.59-2.25,2.38S465.06,613.55,465.12,615.46Z" transform="translate(-398.55 -575.71)"/><path class="cls-16" d="M479.33,596l-7.33.13c-1.79,0-3.59-.17-5.37-.09-1.56.08-2.33-.42-2.18-2,.29-2-.86-4.71.49-6,1.55-1.46,4.28-.44,6.48-.5,3.9-.09,7.81-.07,11.71,0,1.39,0,1.9-.46,1.89-1.87,0-1.84-.08-3.49-1.38-5.08-1-1.24-1.44-3-2.12-4.46l.25-.05c3.5-.13,3.5-.13,3.5,3.24,0,2.24-.09,4.49,0,6.72.08,1.44-.42,1.8-1.81,1.78-5.48-.07-11,0-16.44,0-1.49,0-2.16.2-2.16,2,0,6-.07,6,6.05,6C473.73,595.79,476.55,595.39,479.33,596Z" transform="translate(-398.55 -575.71)"/><path class="cls-6" d="M453.52,576.2v50.62c-.39-.41-.26-.93-.26-1.41q0-23.89,0-47.79A9,9,0,0,1,453.52,576.2Z" transform="translate(-398.55 -575.71)"/><path class="cls-17" d="M613.44,580.24q.07,3.88.16,7.78v14.52c-.91-.15-.9-.72-1.11-1.11,1.34-.42.67-1.53.69-2.3C613.38,592.84,612.94,586.54,613.44,580.24Z" transform="translate(-398.55 -575.71)"/><path class="cls-19" d="M554.07,615.4l-.16-13.9c0-3.83.17-7.65,0-11.47-.07-1.88.45-2.54,2.33-2.32a19.35,19.35,0,0,0,3.22-.12c2,0,3.92.17,5.88.13,1.09,0,1.41.35,1.4,1.41,0,2.29.08,4.58.14,6.87a2.62,2.62,0,0,1,.8,1.77q.21,4.72,0,9.45a2.67,2.67,0,0,1-.8,1.77,6.31,6.31,0,0,0-.15,1c-.17,5.44-.17,5.44-5.52,5.44Z" transform="translate(-398.55 -575.71)"/><path class="cls-20" d="M566.91,609a104.26,104.26,0,0,1,0-13,5.26,5.26,0,0,1,3.8,2.39,42,42,0,0,0,5.68,6.09A4,4,0,0,1,578,608c-.08,3.15,0,6.3-.07,9.45-3.53-1.11-5.58-4.1-8.08-6.48C569,610.15,568.23,609.16,566.91,609Z" transform="translate(-398.55 -575.71)"/><path class="cls-21" d="M519.83,614.42c-1.4,1.47-3.22.87-4.89,1-1,.06-2,.08-2.94.11-4.5-.32-4.49-.32-4.5-5.06,0-1.15-.05-2.3-.08-3.46q.09-9.63.19-19.27c2.91,0,5.82.08,8.73,0a4.49,4.49,0,0,1,3.58,1.3c.1.13.27.27.27.41,0,8.18.27,16.36-.13,24.54Z" transform="translate(-398.55 -575.71)"/><path class="cls-9" d="M520.06,614c.21-8.32.47-16.64-.14-25,1.08.93.52,2.18.56,3.27.12,2.9.11,5.8.15,8.7,0,3.46-.06,6.93-.13,10.39C520.48,612.26,520.8,613.22,520.06,614Z" transform="translate(-398.55 -575.71)"/></svg>