<svg id="Layer_1" data-name="Layer 1" xmlns="http://www.w3.org/2000/svg" viewBox="0 0 236 92.18"><defs><style>.cls-1{fill:#383838;}.cls-2{fill:#2d2d2d;}.cls-3{fill:#2e2e2e;}.cls-4{fill:#353535;}.cls-5{fill:#323232;}.cls-6{fill:#313131;}.cls-7{fill:#2a2a2a;}.cls-8{fill:#333;}.cls-9{fill:#303030;}.cls-10{fill:#343434;}.cls-11{fill:#2c2c2c;}.cls-12{fill:#2b2b2b;}.cls-13{fill:#222;}.cls-14{fill:#212121;}.cls-15{fill:#242424;}.cls-16{fill:#262626;}.cls-17{fill:#272727;}.cls-18{fill:#232323;}.cls-19{fill:#252525;}.cls-20{fill:#292929;}.cls-21{fill:#363636;}.cls-22{fill:#f6f6f6;}.cls-23{fill:#2f2f2f;}.cls-24{fill:#f5f5f5;}.cls-25{fill:#282828;}</style></defs><path class="cls-1" d="M619.87,428.85c-.91-.6-.48-1.52-.48-2.28,0-22.13,0-44.26-.06-66.39,0-2.24.66-2.95,2.93-2.75s4.33,0,6.49.06c1.37,0,3.21-.71,3.22,1.85,0,.9,1.12.37,1.74.34,8.68-.43,16.17,6,16.23,14.37.13,18.13,0,36.27,0,54.41-1.47-.43-1.24-1.68-1.25-2.67,0-5.32-.17-10.63,0-15.94-.06-5.64,0-11.28,0-16.93a3.61,3.61,0,0,0-2.18-3.8c-2-1-3.53-2.64-5.53-3.68-1.58-.82-2.14-.48-2.14,1.23,0,5.89.08,11.78,0,17.68.26,7.32.1,14.65.09,22a3,3,0,0,1-.85,2.53c-.94-.8-.47-1.86-.47-2.79q0-25,0-49.95a16.68,16.68,0,0,0,0-2,2.61,2.61,0,0,0-2.82-2.64,2.69,2.69,0,0,0-2.92,2.56,16.69,16.69,0,0,0,0,2.24q0,25.23,0,50.45c0,.73.58,1.66-.47,2.22-.92-.94-.86-2.13-.86-3.28,0-2.56-.13-5.13.08-7.69-.15-6.69-.17-13.38,0-20.06,0-5.8-.07-11.61,0-17.41a6.13,6.13,0,0,0-2.5-5.43c-2.35-1.77-4.51-3.76-7.2-6-.34,7.48,0,14.4-.19,21.32.22,6.55.12,13.09.07,19.63q.09,7.68,0,15.36C620.74,426.57,620.92,427.86,619.87,428.85Z" transform="translate(-414 -339.41)"/><path class="cls-2" d="M514.87,353c-.84,4.27-.29,8.57-.34,12.85-.06,5.71-.88,5.14,5.36,5.17,3.37,0,6.74.07,10.11,0,1.55,0,2.21.42,2.16,2-.07,2.48-.08,5,0,7.47.05,1.59-.55,2.21-2.25,2.18-4.4-.07-8.81,0-13.21-.06-1.57,0-2.23.52-2.34,1.92-1.91.66-2.42-.91-3-1.95-1.86-3.19-3.92-6.26-5.55-9.57a6.8,6.8,0,0,0-2-2.79c-.13,6,0,11.67-.05,17.35q.26,6.78,0,13.54c.25,7.82.08,15.65.11,23.47,0,1.31.22,2.7-.86,3.8-.76-.47-.45-1.2-.45-1.82q0-41.58,0-83.15c0-.48-.18-1,.27-1.41,2.29-.4,4.61-.09,6.92-.19a1.52,1.52,0,0,1,1.54.69c1.65,3.16,3.62,6.2,3.88,9.86A1.39,1.39,0,0,1,514.87,353Z" transform="translate(-414 -339.41)"/><path class="cls-3" d="M572.5,421c.46,7.74.46,7.75-7.52,7.74-1.11,0-2.22-.1-3.33-.16a101.64,101.64,0,0,1-10.56-10.5c-3-3.45-6.17-6.71-9.15-10.15-1.29-1.48-3.1-2.68-3.41-4.83V381.82c0-.71.19-1.14,1-.81a4.73,4.73,0,0,1,2,1.84c2.83,3.91,5.53,7.91,9.16,11.22.43,5.53.08,11.06.2,16.58a8.14,8.14,0,0,0,.31,3.18c1.44,2.64,5.22,3.39,8.7,1.7.85-2,.24-4,.41-6,.11-1.38-.2-2.78.29-4.13,1.12-1.3,2-.45,2.71.39a82.76,82.76,0,0,0,6.58,6.94,7.8,7.8,0,0,1,2.34,5.6A6.79,6.79,0,0,0,572.5,421Z" transform="translate(-414 -339.41)"/><path class="cls-4" d="M583.36,365.47c4.45-5.29,10.37-6.54,16.93-5.31,6,1.14,11.44,6.78,12.39,12.45a34.81,34.81,0,0,1,.51,5.95c0,10.71,0,21.43,0,32.14a8.18,8.18,0,0,1-.52,3.91c-1.45-1.53-.76-3.41-.9-5.15a24,24,0,0,1,0-2.94c.19-3.88,0-7.77.08-11.66a2.54,2.54,0,0,0-1-2.42c-3.78-2.39-6.47-5.92-9.84-8.75-.81-1.38-.48-2.89-.55-4.36a19.06,19.06,0,0,0-.21-3.7c-.77-3.23-4-4.34-6.74-2.34-.6.45-1.05,1.1-1.82,1.34a3,3,0,0,1-2.27-1.46C587.46,370.54,585,368.3,583.36,365.47Z" transform="translate(-414 -339.41)"/><path class="cls-5" d="M561.15,405c0,3.05,0,6.1,0,9.15,0,.8.25,1.67-.49,2.34-1.19-1.15-.87-2.64-.88-4,0-11.9,0-23.8,0-35.71,0-.83,0-1.66,0-2.49,0-1.35-.73-1.93-2.11-1.94a19.05,19.05,0,0,1-4.4-.2c-.31-.12-.87-.3-.81-.51.83-3-1.73-4.76-2.86-7-.58-1.18-1.65-2.16-1.49-3.62a6.59,6.59,0,0,1,4.54-1c2.06-.41,4.14-.06,6.2-.21.61,0,1.42.43,1.79-.48l0-.16.13-.1c.49-1.89.1-3.8.23-5.7,0-.46-.19-1.07.45-1.28a1.18,1.18,0,0,1,1.3.63c4.45,6.86,9.88,13.26,9.52,22.15A58.83,58.83,0,0,0,572.5,385v17c-.53,0-.77-.31-.93-.71a3.62,3.62,0,0,1-.28-2c1-5.81-1.66-10.14-5.89-13.88-1.22-1.08-1.93-2.54-3.13-3.9a3.15,3.15,0,0,0-.34,2.14c0,6,0,12,0,18C561.91,402.82,562.05,404,561.15,405Z" transform="translate(-414 -339.41)"/><path class="cls-6" d="M608.92,422.82c-6.71,6.27-14.1,7.68-21.21,3.69-5.22-2.94-8.34-7.33-8.43-13.37-.47-3.92-.08-7.86-.21-11.78.68-2.38,1.9-.64,2.53-.13,1.89,1.54,3.62,3.26,5.36,4.95,1.32,1.29,2.65,2.55,4.06,3.76.56.86.32,1.92.77,2.81,1.71,3.55,2.32,3.77,7.77,2.85a75.14,75.14,0,0,0,8.78,6.21A1,1,0,0,1,608.92,422.82Z" transform="translate(-414 -339.41)"/><path class="cls-7" d="M502.94,428.35q0-13.68,0-27.35c1.45-.61,1.66.7,2.23,1.37,3.21,3.76,5.64,8.08,9.15,11.61l0,2.31c.53,1.52,1.89,1,2.86.9a4.66,4.66,0,0,1,5,2.77,23.22,23.22,0,0,0,4.22,5.32c.74.79,1.65,1.69,1.06,2.85s-1.7.56-2.58.57q-9.84,0-19.68,0c-.75,0-1.56.25-2.25-.27Z" transform="translate(-414 -339.41)"/><path class="cls-8" d="M579.39,400.52q0,6.32-.11,12.62a4.67,4.67,0,0,1-.36-2.68c0-10.89,0-21.77,0-32.66,0-4.55.81-8.93,4.42-12.33,1.92.44,2.23,2.34,3.36,3.49a69,69,0,0,1,4.64,5.7c.91.95.81,2.15.81,3.29q0,15.78,0,31.55c0,1.22.16,2.52-.94,3.48-.84-.9-.32-2-.47-3-1.25-1.56-.92-3.42-.7-5.06.68-4.9-1-8.74-4.92-11.82-1.65-1.29-2.58-3.31-5-4.64-.15,3.08,0,5.79-.1,8.48C580,398.16,580.38,399.47,579.39,400.52Z" transform="translate(-414 -339.41)"/><path class="cls-6" d="M561.15,405q0-11.81,0-23.63c0-.46-.23-1.08.28-1.36s1,.12,1.26.56c2.05,3.6,5.25,6.31,7.88,9.45,1.7,2.05,1.4,4.31,1.52,6.61.09,1.78-.53,3.63.42,5.36v19c-1-1.44-.28-3.17-1-4.76-1.49-3.23-4.43-5.18-6.77-7.62C563.57,407.39,563.44,405.14,561.15,405Z" transform="translate(-414 -339.41)"/><path class="cls-9" d="M548,361c1.65,2.6,3.15,5.29,5,7.76,1.08,1.46.68,2.12-.71,2.76-1.13,4.92-.61,9.91-.66,14.88-.07,8.13,0,16.27,0,24.4,0,1.29.27,2.7-1,3.72-.69-.79-.41-1.74-.41-2.62-.05-6.12-.06-12.24-.08-18.36-.1-.13-.26-.27-.27-.42-.52-6.86-6.26-10.85-9.64-16.13-.1-.16-.29-.18-.52-.11-.67,1.31.3,3-.84,4.21v23c1.12,3.36,1.41,6.72-.14,10a2.84,2.84,0,0,1-.3-1.93c0-12,0-24,0-35.93,0-6.38,2.17-11.72,8.37-14.92A8,8,0,0,1,548,361Z" transform="translate(-414 -339.41)"/><path class="cls-10" d="M649.48,409.49c0,5.45,0,10.9,0,16.35,0,.88-.29,1.83.41,2.62,0,.56-.47.63-.89.62-3.65-.1-7.32.33-11-.23l0-24.85c1.2-.78,2.18,0,3.07.55C644,406.16,646.67,407.92,649.48,409.49Z" transform="translate(-414 -339.41)"/><path class="cls-10" d="M572.5,385a1.78,1.78,0,0,1-.44-1.62c.41-5.58-1.21-11-1.64-16.47a6.52,6.52,0,0,0-1.17-2.73c-2.51-3.93-5.08-7.83-7.77-11.94-1,2.3.41,4.71-.83,6.78,0-5.23,0-10.46,0-15.69,0-1.19.16-1.87,1.65-1.82,2.93.09,5.88.09,8.81,0,1.37,0,1.54.58,1.54,1.65Q572.52,364.08,572.5,385Z" transform="translate(-414 -339.41)"/><path class="cls-2" d="M538.74,414.09q.06-5,.14-10c2.7,1.69,4.3,4.39,6.42,6.6,4.35,4.52,8.05,9.59,12.85,13.73a17.08,17.08,0,0,1,3.5,4.18,50.73,50.73,0,0,1-10.81-.14C544,427.49,539,421.42,538.74,414.09Z" transform="translate(-414 -339.41)"/><path class="cls-9" d="M514.87,353a61.73,61.73,0,0,0-3.76-9.39,2.42,2.42,0,0,0-2.69-1.64c-1.88.09-3.78,0-5.66,0,.47-.77,1.24-.43,1.87-.43,8.39,0,16.78,0,25.16-.05,1.86,0,2.46.51,2.38,2.25-.11,2.41-.12,4.82,0,7.23.09,1.67-.59,2.13-2.25,2.1C524.9,353,519.89,353,514.87,353Z" transform="translate(-414 -339.41)"/><path class="cls-7" d="M447.3,339.55c5.44,0,10.87-.06,16.31-.12a2.39,2.39,0,0,1,1.81.76c3.48,3.44,7,6.86,10.48,10.29.68,1.46,1.66,2.89.57,4.55-1.36.67-2.08-.37-2.85-1.07-1.93-1.76-3.76-3.62-5.68-5.4-.45-.42-.72-1.21-1.61-.94-.23,3.44,0,6.85-.09,10.26,0,1.67.76,2.44,2.51,2.42,3.12,0,6.23,0,9.35,0,1.58,0,3.06.23,3.06,2.2s-1.49,2.2-3.07,2.2c-4.41,0-8.83.07-13.24,0-2.63,0-3.17-.58-3.2-3.15-.07-4.83,0-9.66,0-14.48,0-1,.19-2-.74-2.79-2.08-.89-4.26-.31-6.38-.44s-4.31.19-6.44-.25C446.3,342.51,447.67,340.88,447.3,339.55Z" transform="translate(-414 -339.41)"/><path class="cls-8" d="M608.92,422.82c-3.3-2.09-7-3.72-9.43-6.89,1.54-5.86.34-11.89,1.12-17.8.51-1.21,1.38-.8,2.06-.29a109.3,109.3,0,0,1,9.92,8.15l.06,8.62C612.65,417.87,611.15,420.49,608.92,422.82Z" transform="translate(-414 -339.41)"/><path class="cls-11" d="M503,387c0-5.5-.05-11-.05-16.49,0-.61-.34-1.56.53-1.72s1.25.73,1.62,1.39c2.1,3.71,4.16,7.44,6.34,11.11.73,1.23,1.07,2.89,2.94,3.2q.33,8.25,0,16.49c-1.47.72-2-.52-2.6-1.28C508.46,395.72,506,391.22,503,387Z" transform="translate(-414 -339.41)"/><path class="cls-12" d="M461.83,343c.87.73.52,1.71.53,2.58,0,5.32.08,10.65,0,16,0,1.79.42,2.53,2.44,2.47,4.58-.13,9.17-.05,13.75,0,1.14,0,2.06-.07,2-1.55s-1-1.46-2.11-1.46c-3.64,0-7.27,0-10.9,0-1.34,0-2.12-.25-2.09-1.77.06-4.24,0-8.49,0-12.73,0-.84,0-1.75,1-.47a80.83,80.83,0,0,1,.24,11.11c0,1.94.73,2.67,2.73,2.62,3.15-.09,6.31,0,9.61,0-.93-1.88-3.29-2.54-3.29-4.73,1.4-1.49-.51-3.05.09-4.56q5.63,5.31,11.26,10.61a2.23,2.23,0,0,1,.69,1.78q-.06,13.31-.09,26.63c-1.79.48-1.94-1.19-2.74-2a4.7,4.7,0,0,1-1.47-2.26c-.49-5.14-.15-10.29-.22-15.44-.06-4.47,0-4.47-4.78-4.48-4.41,0-8.82.05-13.22,0-3.62,0-4.3-.66-4.34-4.06-.07-5.06,0-10.13,0-15.2A4.12,4.12,0,0,1,461.83,343Z" transform="translate(-414 -339.41)"/><path class="cls-8" d="M631.28,418q0,5.47,0,11a63.25,63.25,0,0,1-11.43-.09q0-9.42,0-18.84c2.09,0,3.14,1.8,4.7,2.69C627.08,414.11,629.57,415.63,631.28,418Z" transform="translate(-414 -339.41)"/><path class="cls-12" d="M503,387c1.65.18,2.17,1.68,2.75,2.69a99.29,99.29,0,0,0,7,10.25,2,2,0,0,0,1.61,1,127.92,127.92,0,0,1,0,13c-3.08-1.14-4.1-4.05-5.88-6.31A62.42,62.42,0,0,0,503,401Z" transform="translate(-414 -339.41)"/><path class="cls-13" d="M414.12,404.49V365a1.24,1.24,0,0,1,1.41.81c.73,1.76,2.11,3.17,2.8,4.95.46,3.89.18,7.79.21,11.68,0,7.06,0,14.11,0,21.16a11.82,11.82,0,0,1-.3,3.7c-.7,1.39-1.5,1-2.31.11S414.85,405.39,414.12,404.49Z" transform="translate(-414 -339.41)"/><path class="cls-14" d="M414.12,404.49c1.19.05,1.43,1,1.89,1.78s.54,1.63,1.63,1.72c1,.9.86,2.12.87,3.26.05,4.15,0,8.31,0,12.46,0,3.25.19,3.37,3.47,3.44,2.5.06,5-.24,7.5.26,1.56.93,2.75,2.1,2.71,4-5.6,0-11.21.05-16.81.14-1.22,0-1.4-.47-1.4-1.47C414.07,421.57,414.09,413,414.12,404.49Z" transform="translate(-414 -339.41)"/><path class="cls-12" d="M503,428.43c7.32,0,14.64,0,22,0,.73,0,1.7.36,2.12-.46.49-1-.53-1.46-1.09-2a23,23,0,0,1-5-6.53c-.74-1.64-2.24-2.08-4.06-2-.94,0-2.42.65-2.57-1.15.66.9,1.64.75,2.59.75,4.24,0,8.48.06,12.72,0,1.8-.05,2.51.55,2.45,2.28-.09,2.5,0,5,0,7.49,0,1.15-.25,2-1.69,1.94q-13.62-.09-27.23-.13C503.16,428.59,503.1,428.49,503,428.43Z" transform="translate(-414 -339.41)"/><path class="cls-15" d="M417.64,370c-2.14-1-1.9-3.62-3.52-5,0-8,0-16.06-.12-24.09,0-1.24.4-1.64,1.62-1.5.85.1,1.72.09,2.57.12,2.29,1.47,2.34,1.67,1,4.16-.85,1.18-.67,2.55-.68,3.86,0,6.31,0,12.62,0,18.93C418.51,367.72,418.72,369,417.64,370Z" transform="translate(-414 -339.41)"/><path class="cls-16" d="M419.23,342.94c1-1.5-.26-2.38-1-3.39H447.3c1.14,1.13,1.27,2.26,0,3.39-.9,1-2.16.93-3.34.93q-10.69.06-21.4,0C421.38,343.87,420.12,344,419.23,342.94Z" transform="translate(-414 -339.41)"/><path class="cls-17" d="M487.76,410c0,6.7,0,13.4.11,20.1,0,1.24-.43,1.57-1.63,1.49-1.72-.11-3.44-.09-5.16-.13-.94-1.14-2.05-2.25-.79-3.82,2.57-.34,3.22-1.83,3.13-4.19-.18-4.39-.06-8.81-.05-13.21a7.56,7.56,0,0,1,.32-2.71c.67-1.2,1.45-.79,2.24-.14A7,7,0,0,1,487.76,410Z" transform="translate(-414 -339.41)"/><path class="cls-18" d="M432.22,431.44c-.66-1.15-1.77-2-2.08-3.38a2.75,2.75,0,0,1,2.33-.89c7.7-.06,15.4-.14,23.1,0a3.87,3.87,0,0,1,1,.21c1.47,1,2.73,2,2.15,4Z" transform="translate(-414 -339.41)"/><path class="cls-19" d="M458.73,431.44c-.13-1.29-1.53-2.05-1.56-3.38.81-1,2-.92,3.08-.93q8.36-.08,16.72,0c1.1,0,2.26,0,3.07.93.13,1.19,1.24,2.1,1,3.38Z" transform="translate(-414 -339.41)"/><path class="cls-20" d="M487.76,410c-1.45-.7-1.95-2.44-3.53-3a3.31,3.31,0,0,1-.9-2.77q-.07-7.73,0-15.46a3.27,3.27,0,0,1,.9-2.76c1.77.61,1.81,2.84,3.53,3.5Z" transform="translate(-414 -339.41)"/><path class="cls-10" d="M560.56,359.27c-1.35,1.52-3.14.49-4.71.72a21.15,21.15,0,0,1-3.28,0C555.17,359.07,558,360.21,560.56,359.27Z" transform="translate(-414 -339.41)"/><path class="cls-21" d="M619.91,390c0-6.82,0-13.63,0-20.44,0-.62-.35-1.47.48-1.77.64-.24,1,.47,1.45.84,2.77,2.45,5.48,5,8.31,7.34a3.23,3.23,0,0,1,1.19,2.82c0,6.23,0,12.46,0,18.7-1.6.78-3-.05-4-.93C624.81,394.41,622,392.62,619.91,390Z" transform="translate(-414 -339.41)"/><path class="cls-21" d="M649.48,409.49c-2.72,0-4.5-1.91-6.57-3.16a17.93,17.93,0,0,0-4.8-2.33c0-6.32,0-12.64,0-19,0-.56,0-1.37.3-1.63.75-.57,1.09.54,1.68.69,3.39.89,5.15,4.35,8.7,5,1.13.22.72,1.38.72,2.15Q649.51,400.39,649.48,409.49Z" transform="translate(-414 -339.41)"/><path class="cls-10" d="M619.91,390c2.41,1,4,2.94,5.9,4.55a11.27,11.27,0,0,0,5.48,2.94V418l-11.38-8Z" transform="translate(-414 -339.41)"/><path class="cls-22" d="M550.64,414.48q0-19.28,0-38.55c0-1.71.06-3.33,1.67-4.45,1.63-.06,3.27-.15,4.9-.18,3.68-.07,3.42-.34,3.42,3.38q0,20.9,0,41.8c-2.61,1.12-5.33.56-8,.34C551.54,416.72,550.91,415.59,550.64,414.48Z" transform="translate(-414 -339.41)"/><path class="cls-23" d="M538.88,381.05c0-1.58-.07-3.15-.08-4.72,0-.4-.06-.89.46-1.05a1,1,0,0,1,1.07.52c1.95,2.61,3.91,5.21,5.79,7.86,1,1.35,1.51,3,3.25,3.71,1,.42.84,1.34.84,2.15,0,1.33,0,2.65-.05,4a2.66,2.66,0,0,1-2.5-1.4c-2.25-3.07-4.55-6.1-6.82-9.16A6.43,6.43,0,0,0,538.88,381.05Z" transform="translate(-414 -339.41)"/><path class="cls-24" d="M601.14,397.49c0,4.54-.15,9.08-.11,13.62a6.72,6.72,0,0,1-1.54,4.82c-4.29,2-6.61,1.15-8.26-2.95q.06-16.92.1-33.84l0-4.48c1.79-2.86,3.7-3.8,6.26-3.08,2.23.62,3.36,2.57,3.39,5.74,0,2.06.08,4.12.13,6.18a2.77,2.77,0,0,1,.81,1.79q.25,5.22,0,10.43A2.18,2.18,0,0,1,601.14,397.49Z" transform="translate(-414 -339.41)"/><path class="cls-10" d="M601.14,397.49q-.35-7,0-14c1.48.1,2.06,1.38,3,2.15,2.63,2.1,4.38,5.16,7.76,6.44.94.35.65,1.26.65,2,0,4,0,7.95,0,11.93C608.15,403.93,605.21,400,601.14,397.49Z" transform="translate(-414 -339.41)"/><path class="cls-5" d="M579.39,400.52c0-3.91,0-7.82,0-11.74,0-.54-.25-1.28.5-1.52.55-.17.93.36,1.27.72,3,3,6,6.12,9,9.17a3,3,0,0,1,.62,2.34V410c-3.12-1-4.45-4-6.9-5.8C582.3,403.06,581.33,401.25,579.39,400.52Z" transform="translate(-414 -339.41)"/><path class="cls-22" d="M484.23,386v21q-.06,8.44-.11,16.88c0,4,0,4-4.08,4.19h-49.9c-2.49,0-5-.08-7.49-.08-4.89,0-4.88,0-4.9-4.83,0-5.06-.07-10.11-.11-15.16V370q.06-12.45.12-24.9c0-1-.38-2.3,1.47-2.17H447.3l14.53.09c0,6.4.13,12.81.06,19.21,0,1.65.47,2.1,2.16,2.07,5.88-.09,11.77,0,17.65-.08,1.9,0,2.5.4,2.47,2.32C484.07,373,484.19,379.51,484.23,386Z" transform="translate(-414 -339.41)"/><path class="cls-24" d="M475.81,355l5.49,5.55H466.81c-.57,0-1-.15-1-.81,0-4.46.08-8.92.15-13.38,0-.12.38-.23.59-.34C469.44,349.22,472.59,352.17,475.81,355Z" transform="translate(-414 -339.41)"/><path class="cls-16" d="M464.45,402.38c-3.73,1.83-7.5,3.58-11.16,5.54a4.57,4.57,0,0,1-4.78-.05c-3.42-1.77-6.94-3.37-10.41-5-1.56-.75-6,.25-7,1.58-1.48,1.9-1.48,1.91-4.49,2-.52,0-1,0-2.06,0l4.76-5.46.49,1.86c4.37-1,6.21-3.43,5.63-8-.52-4-.11-8.14-.11-12.22,0-.89-.18-1.77,1-2.31,4.54-2.07,8.83-4.63,13.53-6.38,1.45.9.76,1.63-.19,2.36a111,111,0,0,0-9.93,5.08c2.69,1.23,5.08,2.67,7.6,3.91.65.32,1.34.87,2.1.14.48-1.8.07-3.62.24-5.42.12-1.14-.47-3,1.19-3.06s1.19,1.82,1.3,3c.17,1.8-.2,3.62.22,5.4,1.12,1,2.3-.77,3.42.06a1.32,1.32,0,0,1,.54,1.57c-1,1.27-2.76,1.36-3.79,2.53a3,3,0,0,0,.16,3.47c2.5,1.6,5.3,2.65,7.93,4a5.8,5.8,0,0,1,2.51,1.63,1.25,1.25,0,0,1-.51,1.66c-1.41.47-2.47-.4-3.63-.89-2.12-.89-4.06-2.17-6.29-2.79-1.09,2.84-.68,5.69-.18,8.53,2.22-.21,3.88-1.64,5.83-2.39,1.72-.67,3.19-2,5.17-2C464.34,401,465,401.39,464.45,402.38Z" transform="translate(-414 -339.41)"/><path class="cls-25" d="M462.22,400.06c.65-.28.67-.85.67-1.42,1.35-3.14,1.24-6.48,1.32-9.76.13-5.42.38-5.14-4.5-2.85-1.1.51-2.14,1.52-3.58.86l-.54-1.46c.32-1.61,1.93-1.69,3-2.34.95-.56,2-1,3.25-1.64a70.43,70.43,0,0,0-7.78-3.88c-1.07-.51-1.38.18-1.4,1.07,0,1.73,0,3.47,0,5.2a5.38,5.38,0,0,1-.62,3.12c-1.21-1.38-.42-3-.59-4.51-.19-1.68.23-3.42-.4-5.57-.94,1.39-.5,2.54-.65,3.59-.32,2.15.73,4.43-.61,6.49-1.41-3.63-.77-7.33-.43-11,.76-.53,1.14-1.14.49-2,0-1.17.08-2.33.11-3.49a2.51,2.51,0,0,0,0-1c-1.13-2.8-1.13-2.85,1.11-6.6.82,1.8,1.57,3.41,2.29,5,.16.36.33,1.07-.16,1-1.71-.24-1.15.89-1.3,1.68-.46,2.42.56,3.72,2.94,4.66,3.41,1.36,6.62,3.21,10,4.7a2.65,2.65,0,0,1,1.84,2.85c-.08,4.82.1,9.65-.09,14.46-.09,2.3.49,3.77,2.87,4.46a19.14,19.14,0,0,1,2.63,1.22l.41-2,4.89,5.46a36.44,36.44,0,0,1-7-.43c-.45-.71,1.39-1.09.39-1.53-2-.88-3.66-2.92-6.29-2.08a1.57,1.57,0,0,0-1.22-1.45C462.77,400.77,462.21,400.72,462.22,400.06Z" transform="translate(-414 -339.41)"/><path class="cls-24" d="M456.13,386.89,464.7,383c0,5.16,0,10,0,14.88,0,1.73-.95,1.1-1.82.79l-10.83-5.17c-.68-1.46-.28-3-.22-4.45A18.46,18.46,0,0,1,456.13,386.89Z" transform="translate(-414 -339.41)"/><path class="cls-22" d="M449.82,393.47c-3.45,1.62-6.93,3.2-10.34,4.9-1.61.8-2.4,1-2.34-1.25.12-4.62,0-9.24,0-14.2L449.87,389A7.12,7.12,0,0,1,449.82,393.47Z" transform="translate(-414 -339.41)"/><path class="cls-24" d="M449.38,375.94c1.21.77.55,1.94.56,2.91.06,2.7-.07,5.41-.13,8.11-4-1.27-7.28-3.84-11.48-5.44A77.44,77.44,0,0,1,449.38,375.94Z" transform="translate(-414 -339.41)"/><path class="cls-24" d="M449.79,406.46l-11.4-5.53,11-5.51c.22.07.6,0,.61.32C450.12,399.31,450.51,402.9,449.79,406.46Z" transform="translate(-414 -339.41)"/><path class="cls-24" d="M462.22,400.06l1,.87-11.14,5.53c-.72-3.56-.33-7.15-.21-10.72,0-.33.38-.25.61-.32A74.19,74.19,0,0,0,462.22,400.06Z" transform="translate(-414 -339.41)"/><path class="cls-24" d="M452.06,387v-11l11.42,5.43-7.89,4.09A12.32,12.32,0,0,0,452.06,387Z" transform="translate(-414 -339.41)"/><path class="cls-25" d="M449.79,406.46c.42-3.44.1-6.89.17-10.33a.69.69,0,0,0-.57-.71c.29-.22.82-.33.83,0C450.26,399.11,451.13,402.82,449.79,406.46Z" transform="translate(-414 -339.41)"/><path class="cls-25" d="M452.49,395.42c-1.15,1-.54,2.28-.56,3.42-.05,2.54.09,5.08.16,7.62-1.31-1.52-.46-3.29-.6-4.94a46.55,46.55,0,0,1,0-5.15C451.49,395.83,451.26,394.85,452.49,395.42Z" transform="translate(-414 -339.41)"/><path class="cls-25" d="M449.82,393.47a15.57,15.57,0,0,0,.05-4.47A4,4,0,0,1,449.82,393.47Z" transform="translate(-414 -339.41)"/><path class="cls-25" d="M451.84,389c.07,1.48.14,3,.22,4.45C451,392,451.33,390.53,451.84,389Z" transform="translate(-414 -339.41)"/></svg>