<svg xmlns="http://www.w3.org/2000/svg" viewBox="0 0 2067.63 1547.52"><defs><style>.cls-1{fill:#edf2f8;}.cls-2{fill:#42a5f5;}.cls-3{fill:#292f52;}.cls-4{fill:#cfd2d3;}.cls-5{fill:#e5e7e8;}.cls-6{fill:#3e4463;}.cls-7{fill:#d8d8e6;}.cls-8{fill:#40c4ff;}.cls-9{fill:#61dbfb;}.cls-10{fill:#e6e8e8;}.cls-11{fill:#a2a9ad;}.cls-12{fill:#ffa993;}.cls-13{fill:#ff7d71;}.cls-14{fill:#ffb29e;}.cls-15{fill:#ff7167;}</style></defs><g id="Layer_1" data-name="Layer 1"><path class="cls-1" d="M1203.53,1854.23c137.28,329.53,326.9,153.64,568,46.14,139.64-62.26,240.26-66,382.83-13.24,162.24,60,348.51,110.57,493.43-30,326.46-316.7,13.32-978.58-376.34-900.44-132,26.46-232.77,151.21-361.75,176-125.41,24.11-229.74-109.29-335.6-166.13-187.14-100.49-331,42.58-399.3,249.82C1103.16,1433.6,1122.15,1647.16,1203.53,1854.23Z" transform="translate(-956.85 -751.82)"/><path class="cls-2" d="M3024.48,959.72V1361a41.69,41.69,0,0,1-41.58,41.57H2544.29A41.7,41.7,0,0,1,2502.7,1361V959.72a41.71,41.71,0,0,1,41.59-41.57H2982.9A41.7,41.7,0,0,1,3024.48,959.72Z" transform="translate(-956.85 -751.82)"/><path class="cls-3" d="M3024.48,959.72v46.11H2502.7V959.72a41.71,41.71,0,0,1,41.59-41.57H2982.9A41.7,41.7,0,0,1,3024.48,959.72Z" transform="translate(-956.85 -751.82)"/><path class="cls-2" d="M2962.12,961.77a14.55,14.55,0,1,0,14.55-14.55A14.55,14.55,0,0,0,2962.12,961.77Z" transform="translate(-956.85 -751.82)"/><path class="cls-2" d="M2907.55,961.77a14.55,14.55,0,1,0,14.55-14.55A14.55,14.55,0,0,0,2907.55,961.77Z" transform="translate(-956.85 -751.82)"/><path class="cls-4" d="M2728.6,961.78c0,8-9,14.55-20,14.55H2555.28c-11,0-20-6.55-20-14.55s9-14.56,20-14.56H2708.6C2719.6,947.22,2728.6,953.77,2728.6,961.78Z" transform="translate(-956.85 -751.82)"/><path class="cls-5" d="M2852.64,1074.62H2563a10.4,10.4,0,1,1,0-20.79h289.64a10.4,10.4,0,0,1,0,20.79Z" transform="translate(-956.85 -751.82)"/><path class="cls-5" d="M2793.05,1122.88H2618.43a10.4,10.4,0,0,1,0-20.79h174.62a10.4,10.4,0,0,1,0,20.79Z" transform="translate(-956.85 -751.82)"/><path class="cls-5" d="M2897,1171.14H2618.43a10.4,10.4,0,0,1,0-20.79H2897a10.4,10.4,0,0,1,0,20.79Z" transform="translate(-956.85 -751.82)"/><path class="cls-5" d="M2852.64,1219.4h-158a10.4,10.4,0,0,1,0-20.79h158a10.4,10.4,0,0,1,0,20.79Z" transform="translate(-956.85 -751.82)"/><path class="cls-5" d="M2945.49,1267.66H2618.43a10.4,10.4,0,0,1,0-20.79h327.06a10.4,10.4,0,0,1,0,20.79Z" transform="translate(-956.85 -751.82)"/><path class="cls-5" d="M2705.74,1315.92H2563a10.4,10.4,0,1,1,0-20.79h142.74a10.4,10.4,0,0,1,0,20.79Z" transform="translate(-956.85 -751.82)"/><path class="cls-5" d="M2852.64,1364.18H2618.43a10.4,10.4,0,0,1,0-20.79h234.21a10.4,10.4,0,0,1,0,20.79Z" transform="translate(-956.85 -751.82)"/><path class="cls-6" d="M1274,1374.76a137.75,137.75,0,0,0-1-16.45l30.9-17.85a176.58,176.58,0,0,0-57.15-98.8l-30.85,17.8A138.67,138.67,0,0,0,1187.5,1243v-35.65a177.53,177.53,0,0,0-114.15,0V1243a138.67,138.67,0,0,0-28.45,16.45l-30.9-17.85a176.88,176.88,0,0,0-57.15,98.85l30.95,17.9a142,142,0,0,0,0,32.8L956.9,1409a176,176,0,0,0,57.15,98.85l30.85-17.8a143.4,143.4,0,0,0,28.45,16.45v35.65a177.53,177.53,0,0,0,114.15-.05v-35.6a143.4,143.4,0,0,0,28.45-16.45l30.85,17.8a176.36,176.36,0,0,0,57.1-98.85l-30.85-17.85A136.31,136.31,0,0,0,1274,1374.76Zm-60.5,17.9a84.93,84.93,0,0,1-140.15,45.1,85.21,85.21,0,0,1-26.1-45.1,87.64,87.64,0,0,1-1.85-17.9,85,85,0,1,1,168.1,17.9Z" transform="translate(-956.85 -751.82)"/><rect class="cls-2" x="340.35" y="74.43" width="299.98" height="162.25" rx="40"/><path class="cls-5" d="M1505.68,960.5a10,10,0,0,1-7.22-16.91l34.64-36.21-34.64-36.22a10,10,0,0,1,14.45-13.82l41.25,43.13a10,10,0,0,1,0,13.82l-41.25,43.12A9.94,9.94,0,0,1,1505.68,960.5Z" transform="translate(-956.85 -751.82)"/><path class="cls-5" d="M1388.7,960.5a10,10,0,0,1-7.23-3.09l-41.25-43.12a10,10,0,0,1,0-13.82l41.25-43.13a10,10,0,0,1,14.46,13.82l-34.64,36.22,34.64,36.21a10,10,0,0,1-7.23,16.91Z" transform="translate(-956.85 -751.82)"/><path class="cls-5" d="M1430.94,960.51a10,10,0,0,1-9.36-13.53l32.5-86.25a10,10,0,0,1,18.72,7L1440.3,954A10,10,0,0,1,1430.94,960.51Z" transform="translate(-956.85 -751.82)"/><path class="cls-7" d="M2596.57,1999.25c0,91.7-261.29,300.1-583.6,300.1s-583.61-208.4-583.61-300.09,261.29-166,583.61-166S2596.57,1907.56,2596.57,1999.25Z" transform="translate(-956.85 -751.82)"/></g><g id="Layer_2" data-name="Layer 2"><path class="cls-3" d="M2325.07,1746.82c40.08,3,237.43,67,242.43,122s-415,297.5-599.06,295-535.94-230-523.44-284.17,145.59-126.51,227.5-132.87C1775,1738.86,2325.07,1746.82,2325.07,1746.82Z" transform="translate(-956.85 -751.82)"/><path class="cls-3" d="M1958.33,2044.59c27.92,6.77,76.67,44.27,94.17,54.27s93.75,56.25,100,76.25,5,78.75-37.5,96.25-185-31.25-203.75-48.75C1890,2083.86,1958.33,2044.59,1958.33,2044.59Z" transform="translate(-956.85 -751.82)"/><path class="cls-6" d="M1444.67,1873.86c-14.34,21.25-18.42,106.25.33,136.25s221.25,165,455,212.5c-7.5-35,74.45-138,91.11-156.25C1820.28,1982.3,1575,1840.11,1444.67,1873.86Z" transform="translate(-956.85 -751.82)"/><path class="cls-3" d="M1975.83,2084.69c-107.08-12.08-243.56,51.67-253.45,91.67s-1.13,87.5,23.87,111.25,189.58,13.76,272.92-51.25C2036.25,2168.86,1975.83,2084.69,1975.83,2084.69Z" transform="translate(-956.85 -751.82)"/><path class="cls-2" d="M1974.27,2104c-44.69-1.79-131.77,21.13-156.77,43.63,15,38.75,26.25,95,13.75,113.75,50,8.75,147.22-16.25,174.86-38.75C2008.75,2186.36,1974.27,2104,1974.27,2104Z" transform="translate(-956.85 -751.82)"/><path class="cls-6" d="M2567.5,1868.86c19.19,32.5,30,117.5,0,147.5s-350,191.67-548.33,220c-30-28.33-51.67-135-43.34-151.67C2109.17,1983,2410.83,1849.69,2567.5,1868.86Z" transform="translate(-956.85 -751.82)"/><path class="cls-8" d="M2307.54,1614.67c5.32,67.34-28.75,75-52.5,91.25s-16.25,65-7.5,147.5c-53.75,42.5-345,106.25-506.25,20,3.75-23.75,6.25-88.75,2.5-117.5s-17.5-45-66.25-73.75,2.5-337.5,23.75-363.75,152.5-108.75,221.25-118.75c0,0,105-6.25,147.5,0s196.25,78.75,237.5,126.25S2303.79,1567.17,2307.54,1614.67Z" transform="translate(-956.85 -751.82)"/><path class="cls-9" d="M2160.83,1879.69c6.67-1.66,146.67-25,208.34-70,86.44-63.07-26.74-441.62-55.71-474.85,0,0-22.17-36.42-85.32-66.55-48.1,28.88-36.64,161.79-33.1,188.88,10.79,82.52,44.91,196.3,52.46,222.52-18.33,20-106.67,60-106.67,60Z" transform="translate(-956.85 -751.82)"/><path class="cls-9" d="M1840.83,1888s-60,2.78-116.67-16.67c-203.92-70-104.12-460.44-22.87-552.94,0,0,27.34-29.44,63.27-47.76,29.52,12.24,53.29,90.06,35.9,179-16.3,83.34-39.63,245-39.63,261.67,18.33,13.33,71.67,40,71.67,40Z" transform="translate(-956.85 -751.82)"/><path class="cls-4" d="M2275.75,1931.36H1715.91l-24.25-351.95c145.13-22.84,487.07-22.84,608.34,0Z" transform="translate(-956.85 -751.82)"/><path class="cls-10" d="M2033.33,1746.82a37.5,37.5,0,1,1-37.5-37.5A37.5,37.5,0,0,1,2033.33,1746.82Z" transform="translate(-956.85 -751.82)"/><polygon class="cls-11" points="1318.9 1179.53 1318.9 1208.7 758.67 1208.7 759.06 1179.53 1318.9 1179.53"/><path class="cls-12" d="M2083,1127.17c-2.16,22.51-4.17,78.34,10,98.34-54.17,47.5-158.33,38.33-192.5,5.83,7.5-26.67,7.5-81.67,0-99.17s88.33-30.83,88.33-30.83Z" transform="translate(-956.85 -751.82)"/><path class="cls-3" d="M1822.64,989.7c-66.73-158.38,32.82-163.36,32.82-163.36,21.66-72.78,156.59-84,201.66-68.33,74.17,25.83,125.34,104.9,91.5,226.28,0,0-41.71,181.94-142.33,181.63C1905.35,1165.61,1822.64,989.7,1822.64,989.7Z" transform="translate(-956.85 -751.82)"/><path class="cls-12" d="M2168.78,1026.76c0,38.56-34.43,49.58-55.83,49.58s-15.21-34.43-15.21-56.06,3-43.11,24.38-43.11S2168.78,987.17,2168.78,1026.76Z" transform="translate(-956.85 -751.82)"/><path class="cls-12" d="M1800.46,1033.87c0,38.56,34.43,49.58,55.83,49.58s15.21-34.43,15.21-56.06-3-43.1-24.38-43.1S1800.46,994.29,1800.46,1033.87Z" transform="translate(-956.85 -751.82)"/><path class="cls-13" d="M2031.39,1196.89c-39.27,17.78-99.18,15.56-125.89,0,.51-12.24.8-27.65,0-36.52C1937.12,1170.5,2031.39,1196.89,2031.39,1196.89Z" transform="translate(-956.85 -751.82)"/><path class="cls-14" d="M1838,995.5c0,120,60,204.17,168.33,204.17S2139.62,1058,2139.62,995.5s-100.83-134.16-155-134.16C1853,861.34,1838,995.5,1838,995.5Z" transform="translate(-956.85 -751.82)"/><path class="cls-13" d="M1838,1026.76c44.17-27.92,55.79-73.83,65.83-79.59,58.13-33.33,98.44,25.28,180-3.33,0,0,16.67,51.41,55.83,67.16,1.83-33.13-40.35-89.71-65.18-112.18s-169-47.34-195.67,6.76S1838,1026.76,1838,1026.76Z" transform="translate(-956.85 -751.82)"/><path class="cls-3" d="M1838,1026.76c32.5-21.25,48.33-68.76,50.83-87.09,73.33-54.16,128.33,15.84,200.83-5,5.84,26.67,32.5,66,50,76.33,3.23-21,14.68-55.56,5.52-78.9S2124.9,826.34,1980.6,822.17s-166,88.34-162.64,116.67S1838,1026.76,1838,1026.76Z" transform="translate(-956.85 -751.82)"/><ellipse class="cls-3" cx="1088.82" cy="282.53" rx="9.37" ry="15.94"/><ellipse class="cls-3" cx="986.63" cy="282.53" rx="9.37" ry="15.94"/><path class="cls-15" d="M2032.91,976.74l.17-.62a11,11,0,0,1,.61-1.7,16.48,16.48,0,0,1,3.24-4.81,13.47,13.47,0,0,1,2.79-2.43,19.22,19.22,0,0,1,3.48-2.09,21.16,21.16,0,0,1,4.12-1.35,22.13,22.13,0,0,1,4.48-.53,20.28,20.28,0,0,1,4.53.42,17.52,17.52,0,0,1,4.26,1.29,16.47,16.47,0,0,1,3.64,2.1,11.65,11.65,0,0,1,2.84,2.5,14.31,14.31,0,0,1,3.13,4.94,12.92,12.92,0,0,1,.72,2.28l.08.4a.41.41,0,0,1-.34.49.43.43,0,0,1-.25,0l-1.51-.7a32.3,32.3,0,0,0-4-1.66,17.18,17.18,0,0,0-2.76-.88,22.54,22.54,0,0,0-3.16-.7,32,32,0,0,0-7-.45,40.08,40.08,0,0,0-13,2.18,40.68,40.68,0,0,0-5.59,2.21.42.42,0,0,1-.57-.18.36.36,0,0,1,0-.3Z" transform="translate(-956.85 -751.82)"/><path class="cls-15" d="M1919.2,976.72a12.06,12.06,0,0,1,.72-2.19,16.51,16.51,0,0,1,2.84-4.51,13.63,13.63,0,0,1,2.37-2.3,17,17,0,0,1,3-2,19.29,19.29,0,0,1,15.81-.9,16.85,16.85,0,0,1,6.39,4.54,14.4,14.4,0,0,1,1.77,2.72,11.78,11.78,0,0,1,1.07,4.72l0,.43a.41.41,0,0,1-.43.39.39.39,0,0,1-.21-.06l-1.23-.8a18.78,18.78,0,0,0-3.4-1.78,23,23,0,0,0-5.24-1.36,29.57,29.57,0,0,0-6.25-.06,47.45,47.45,0,0,0-11.63,2.28c-3.12,1-5.13,1.79-5.13,1.79a.4.4,0,0,1-.51-.21.34.34,0,0,1,0-.22Z" transform="translate(-956.85 -751.82)"/><path class="cls-15" d="M2012.85,1070.81s.24.7.64,1.94,1.1,2.9,1.87,5a94.48,94.48,0,0,1,5,15.87,22.14,22.14,0,0,1,0,9.72,8.3,8.3,0,0,1-6.88,6.28,16,16,0,0,1-5.94-.4c-1.32-.38-2-.63-2-.63a.8.8,0,0,1-.48-1,.77.77,0,0,1,.71-.53h.06s.75,0,2,0a16,16,0,0,0,4.84-.8,4.72,4.72,0,0,0,3.31-4,22.85,22.85,0,0,0-.47-7.7c-1.11-5.57-2.8-11.33-3.58-15.83a43.52,43.52,0,0,1-.66-5.55,11.45,11.45,0,0,1,0-2.13v-.07a.82.82,0,0,1,.92-.67A.81.81,0,0,1,2012.85,1070.81Z" transform="translate(-956.85 -751.82)"/><path class="cls-15" d="M1962.82,1132.75s1.27.52,3.41,1.54a25,25,0,0,0,3.78,1.5,46.65,46.65,0,0,0,4.84,1.54c1.79.55,3.79,1,5.91,1.43s4.39.69,6.69,1.14c2.35.25,4.77.49,7.24.67s5,.24,7.53.21c2.53.12,5.06-.13,7.55-.21,2.46-.28,5-.28,7.27-.7s4.63-.6,6.75-1.06,4.08-1,6-1.34c1.76-.58,3.47-1,4.91-1.54s2.7-1,3.69-1.49c1.92-1,3.12-1.57,3.12-1.57l.24-.11a1.58,1.58,0,0,1,1.87,2.46s-.91,1.07-2.69,2.92a41.33,41.33,0,0,1-8.58,5.85,52.43,52.43,0,0,1-6.32,2.69,51.37,51.37,0,0,1-7.33,2.16c-2.58.66-5.27,1-8,1.43-2.76.18-5.56.52-8.38.47a71.23,71.23,0,0,1-8.41-.42,66.91,66.91,0,0,1-8.07-1.34,53,53,0,0,1-7.35-2.22l-3.32-1.28-3-1.54a30.18,30.18,0,0,1-5.05-3.12,19.33,19.33,0,0,1-3.45-2.81c-1.69-1.66-2.62-2.67-2.62-2.67a1.62,1.62,0,0,1,1.81-2.59Z" transform="translate(-956.85 -751.82)"/></g></svg>